<svg width="20" height="19" viewBox="0 0 20 19" fill="none" xmlns="http://www.w3.org/2000/svg">
<g id="Group 19">
<path id="Ellipse 16" d="M19.5 9.5C19.5 14.7467 15.2467 19 10 19C4.75329 19 0.5 14.7467 0.5 9.5C0.5 4.25329 4.75329 0 10 0C15.2467 0 19.5 4.25329 19.5 9.5Z" fill="#D7F5D2"/>
<path id="Vector 19 (Stroke)" fill-rule="evenodd" clip-rule="evenodd" d="M14.592 6.68249C15.0807 7.11715 15.0931 7.8767 14.6189 8.32708L8.6464 14L5.3811 10.8985C4.90694 10.4481 4.91935 9.68855 5.40797 9.2539C5.84175 8.86803 6.4988 8.87877 6.91974 9.2786L8.6464 10.9186L13.0803 6.70719C13.5012 6.30736 14.1583 6.29663 14.592 6.68249Z" fill="#32BC16"/>
</g>
</svg>
