<svg width="27" height="28" viewBox="0 0 27 28" fill="none" xmlns="http://www.w3.org/2000/svg">
<path id="Vector" d="M19.7331 15.3333C20.7331 15.3333 21.6131 14.7866 22.0665 13.96L26.8398 5.30663C27.3331 4.42663 26.6931 3.33329 25.6798 3.33329H5.94646L4.69313 0.666626H0.33313V3.33329H2.9998L7.7998 13.4533L5.9998 16.7066C5.02646 18.4933 6.30646 20.6666 8.33313 20.6666H24.3331V18H8.33313L9.7998 15.3333H19.7331ZM7.21313 5.99996H23.4131L19.7331 12.6666H10.3731L7.21313 5.99996ZM8.33313 22C6.86646 22 5.6798 23.2 5.6798 24.6666C5.6798 26.1333 6.86646 27.3333 8.33313 27.3333C9.7998 27.3333 10.9998 26.1333 10.9998 24.6666C10.9998 23.2 9.7998 22 8.33313 22ZM21.6665 22C20.1998 22 19.0131 23.2 19.0131 24.6666C19.0131 26.1333 20.1998 27.3333 21.6665 27.3333C23.1331 27.3333 24.3331 26.1333 24.3331 24.6666C24.3331 23.2 23.1331 22 21.6665 22Z" fill="#3F5E72"/>
</svg>
