<svg width="34" height="30" viewBox="0 0 34 30" fill="none" xmlns="http://www.w3.org/2000/svg">
<path id="Vector" d="M17 4.11363C16.1861 3.09622 15.1348 2.29856 13.846 1.72067C12.5573 1.1455 11.1669 0.85791 9.67466 0.85791C7.23287 0.85791 5.13022 1.73967 3.3667 3.50318C1.60319 5.2667 0.721436 7.36935 0.721436 9.81113C0.721436 11.9138 1.24642 13.8808 2.29639 15.7121C3.34907 17.5435 5.87632 20.2905 9.87814 23.9532L14.253 28.0228C14.9991 28.7689 15.9148 29.142 17 29.142C18.0853 29.142 19.0009 28.7689 19.747 28.0228L24.0202 24.0549C27.9542 20.3922 30.4814 17.6113 31.6019 15.7121C32.7197 13.813 33.2786 11.846 33.2786 9.81113C33.2786 7.36935 32.3969 5.2667 30.6333 3.50318C28.8698 1.73967 26.7672 0.85791 24.3254 0.85791C22.901 0.85791 21.5282 1.1455 20.2069 1.72067C18.8829 2.29856 17.8139 3.09622 17 4.11363Z" fill="#C8D6DF"/>
</svg>
