<svg width="36" height="36" viewBox="0 0 36 36" fill="none" xmlns="http://www.w3.org/2000/svg">
<path d="M18 7.11363C17.1861 6.09622 16.1348 5.29856 14.846 4.72067C13.5573 4.1455 12.1669 3.85791 10.6747 3.85791C8.23287 3.85791 6.13022 4.73967 4.3667 6.50318C2.60319 8.2667 1.72144 10.3693 1.72144 12.8111C1.72144 14.9138 2.24642 16.8808 3.29639 18.7121C4.34907 20.5435 6.87632 23.2905 10.8781 26.9532L15.253 31.0228C15.9991 31.7689 16.9148 32.142 18 32.142C19.0853 32.142 20.0009 31.7689 20.747 31.0228L25.0202 27.0549C28.9542 23.3922 31.4814 20.6113 32.6019 18.7121C33.7197 16.813 34.2786 14.846 34.2786 12.8111C34.2786 10.3693 33.3969 8.2667 31.6333 6.50318C29.8698 4.73967 27.7672 3.85791 25.3254 3.85791C23.901 3.85791 22.5282 4.1455 21.2069 4.72067C19.8829 5.29856 18.8139 6.09622 18 7.11363Z" fill="#C8D6DF"/>
</svg>
