<svg width="25" height="24" viewBox="0 0 25 24" fill="none" xmlns="http://www.w3.org/2000/svg">
<path id="Vector" d="M11.0995 3.46915L12.2132 4.93119L13.3269 3.46915C13.784 2.86912 14.3937 2.38228 15.1915 2.01645C15.9993 1.64722 16.8264 1.46665 17.6852 1.46665C19.1061 1.46665 20.3162 1.98658 21.3833 3.10731C22.452 4.2297 22.9732 5.53329 22.9732 7.09058C22.9732 8.69645 22.3896 10.3818 21.0801 12.1687C19.8077 13.9024 16.8865 16.9727 12.2226 21.4313C10.0321 19.302 8.2316 17.5309 6.81999 16.1169L6.81934 16.1163C5.22207 14.5185 4.05039 13.1928 3.27595 12.1307L3.27426 12.1284C2.48451 11.05 2.02026 10.1778 1.80411 9.49898C1.57398 8.77182 1.45322 7.97195 1.45322 7.09058C1.45322 5.53329 1.97441 4.2297 3.04312 3.10731C4.11025 1.98658 5.32032 1.46665 6.74122 1.46665C7.66028 1.46665 8.49456 1.65113 9.26195 2.01065C10.0332 2.37408 10.6363 2.86105 11.0995 3.46915Z" stroke="#3F5E72" stroke-width="2.8"/>
</svg>
