<svg width="22" height="28" viewBox="0 0 22 28" fill="none" xmlns="http://www.w3.org/2000/svg">
<path id="Vector" d="M11.0002 0.666626C9.89616 0.666626 9.00016 1.56263 9.00016 2.66663V3.59371C5.55107 4.48275 3.00016 7.60636 3.00016 11.3333V19.3333L0.333496 22V23.3333H8.69287C8.45809 23.7385 8.33414 24.1983 8.3335 24.6666C8.3335 25.3739 8.61445 26.0521 9.11455 26.5522C9.61464 27.0523 10.2929 27.3333 11.0002 27.3333C11.7074 27.3333 12.3857 27.0523 12.8858 26.5522C13.3859 26.0521 13.6668 25.3739 13.6668 24.6666C13.6654 24.1981 13.5405 23.7382 13.3049 23.3333H21.6668V22L19.0002 19.3333V11.3333C19.0002 7.60636 16.4493 4.48275 13.0002 3.59371V2.66663C13.0002 1.56263 12.1042 0.666626 11.0002 0.666626ZM11.0002 5.99996C13.9415 5.99996 16.3335 8.39196 16.3335 11.3333V19.3333V20.4375L16.5627 20.6666H5.43766L5.66683 20.4375V19.3333V11.3333C5.66683 8.39196 8.05883 5.99996 11.0002 5.99996Z" fill="#3F5E72"/>
</svg>
