<svg width="100" height="101" viewBox="0 0 100 101" fill="none" xmlns="http://www.w3.org/2000/svg">
<g id="User">
<path id="Vector" d="M90.2068 86.4374C89.9324 86.9126 89.5378 87.3071 89.0626 87.5814C88.5874 87.8557 88.0484 88 87.4997 87.9999H12.4997C11.9514 87.9993 11.413 87.8545 10.9383 87.58C10.4637 87.3055 10.0697 86.911 9.7958 86.436C9.5219 85.961 9.37779 85.4224 9.37793 84.8741C9.37807 84.3258 9.52246 83.7872 9.7966 83.3124C15.7458 73.0272 24.9138 65.6522 35.613 62.1561C30.3207 59.0056 26.2089 54.2049 23.9091 48.4913C21.6092 42.7777 21.2485 36.4671 22.8823 30.5286C24.5161 24.5902 28.0541 19.3522 32.953 15.6191C37.8518 11.886 43.8406 9.86426 49.9997 9.86426C56.1588 9.86426 62.1477 11.886 67.0465 15.6191C71.9454 19.3522 75.4833 24.5902 77.1172 30.5286C78.751 36.4671 78.3903 42.7777 76.0904 48.4913C73.7906 54.2049 69.6788 59.0056 64.3865 62.1561C75.0857 65.6522 84.2536 73.0272 90.2029 83.3124C90.4777 83.7871 90.6228 84.3258 90.6235 84.8744C90.6242 85.4229 90.4804 85.962 90.2068 86.4374Z" fill="black"/>
</g>
</svg>
