<svg width="24" height="24" viewBox="0 0 24 24" fill="none" xmlns="http://www.w3.org/2000/svg">
<g id="Component 3" clip-path="url(#clip0_6147_3633)">
<path id="Vector" d="M19.2 3.81818H18.3V2.90909C18.3 2.40909 17.895 2 17.4 2C16.905 2 16.5 2.40909 16.5 2.90909V3.81818H7.5V2.90909C7.5 2.40909 7.095 2 6.6 2C6.105 2 5.7 2.40909 5.7 2.90909V3.81818H4.8C3.81 3.81818 3 4.63636 3 5.63636V20.1818C3 21.1818 3.81 22 4.8 22H19.2C20.19 22 21 21.1818 21 20.1818V5.63636C21 4.63636 20.19 3.81818 19.2 3.81818ZM18.3 20.1818H5.7C5.205 20.1818 4.8 19.7727 4.8 19.2727V8.36364H19.2V19.2727C19.2 19.7727 18.795 20.1818 18.3 20.1818Z" fill="#6A7A85"/>
</g>
<defs>
<clipPath id="clip0_6147_3633">
<rect width="24" height="24" fill="white"/>
</clipPath>
</defs>
</svg>
