<svg width="22" height="22" viewBox="0 0 22 22" fill="none" xmlns="http://www.w3.org/2000/svg">
<path id="Vector" d="M10.9734 2.83387C12.4364 2.83387 13.6334 4.07912 13.6334 5.60108C13.6334 7.12305 12.4364 8.3683 10.9734 8.3683C9.51037 8.3683 8.31337 7.12305 8.31337 5.60108C8.31337 4.07912 9.51037 2.83387 10.9734 2.83387ZM10.9734 15.8122C14.5644 15.8122 18.6874 17.5971 18.9534 18.5794H2.99337C3.29927 17.5832 7.39567 15.8122 10.9734 15.8122ZM10.9734 0.0666504C8.03407 0.0666504 5.65337 2.54331 5.65337 5.60108C5.65337 8.65886 8.03407 11.1355 10.9734 11.1355C13.9127 11.1355 16.2934 8.65886 16.2934 5.60108C16.2934 2.54331 13.9127 0.0666504 10.9734 0.0666504ZM10.9734 13.045C7.42227 13.045 0.333374 14.899 0.333374 18.5794V21.3467H21.6134V18.5794C21.6134 14.899 14.5245 13.045 10.9734 13.045Z" fill="#3F5E72"/>
</svg>
