<svg width="166" height="26" viewBox="0 0 166 26" fill="none" xmlns="http://www.w3.org/2000/svg">
<mask id="mask0_6075_6020" style="mask-type:luminance" maskUnits="userSpaceOnUse" x="0" y="0" width="65" height="26">
<path d="M65 25.6098C64.7427 25.6098 64.5796 25.6098 64.4164 25.6098C60.4111 25.6098 56.407 25.6045 52.4016 25.6191C52.0064 25.6204 51.7836 25.509 51.5846 25.1522C48.8047 20.1588 45.9996 15.1786 43.2184 10.1864C42.6295 9.12936 41.7396 8.68771 40.5711 8.68771C38.7342 8.68904 36.8973 8.68506 35.0604 8.6824C34.8827 8.6824 34.7063 8.6824 34.4304 8.6824C34.7315 8.0113 34.9875 7.42774 35.2527 6.84815C35.9543 5.31761 36.6599 3.78708 37.3655 2.25787C37.9292 1.03636 38.9159 0.416983 40.2329 0.40372C43.3112 0.374542 46.3895 0.373216 49.4665 0.401068C50.814 0.413004 51.8313 1.06686 52.4732 2.2592C54.6589 6.31631 56.8367 10.3761 59.0184 14.4345C60.919 17.9691 62.8222 21.5036 64.7228 25.0395C64.8064 25.196 64.878 25.3591 64.9987 25.6098H65ZM0.275868 25.5395C3.90061 25.5422 7.52403 25.5674 11.1488 25.5289C12.4538 25.5156 13.4486 24.883 14.0082 23.6549C14.6727 22.1973 15.3664 20.7529 16.003 19.2847C16.3531 18.477 16.8929 17.8616 17.702 17.5818C18.4075 17.3378 19.1688 17.1441 19.9089 17.1309C22.6384 17.0791 25.3692 17.1176 28.1 17.1096C29.5921 17.1043 30.6903 16.477 31.3136 15.0685C32.0285 13.4531 32.7845 11.8562 33.5193 10.2501C33.7288 9.79118 33.9278 9.32698 34.1744 8.76861C33.9198 8.76861 33.762 8.76861 33.6055 8.76861C30.1306 8.76861 26.6544 8.76198 23.1795 8.77524C21.7816 8.78055 20.7338 9.38534 20.1357 10.6824C19.4593 12.152 18.8081 13.6348 18.1078 15.0937C17.7444 15.8483 17.2616 16.4226 16.633 16.782C15.9672 17.1627 15.3186 17.2038 14.8213 17.2144C9.8636 17.3232 6.94444 17.2104 6.94444 17.2104C6.64337 17.1985 5.99482 17.1826 5.36483 17.5553C4.90594 17.8272 4.63007 18.2012 4.48285 18.4426C2.98812 20.7967 1.49473 23.1495 0 25.5037C0.0530515 25.5117 0.151197 25.5422 0.275868 25.5422V25.5395ZM44.9532 17.2542C41.5274 17.2542 38.1016 17.2595 34.6758 17.2542C33.0882 17.2515 31.9821 17.9333 31.3349 19.4147C30.5099 21.306 29.6213 23.1694 28.7632 25.0461C28.6916 25.2026 28.6425 25.3684 28.5735 25.5541C28.6929 25.578 28.7552 25.6005 28.8176 25.6005C32.4755 25.6032 36.1334 25.6297 39.7899 25.5873C41.038 25.5727 41.9876 24.9347 42.538 23.7809C42.8086 23.2145 43.0659 22.6429 43.3271 22.0726C44.0473 20.4996 44.7675 18.9266 45.5328 17.2542C45.2768 17.2542 45.1137 17.2542 44.9505 17.2542H44.9532Z" fill="white"/>
</mask>
<g mask="url(#mask0_6075_6020)">
<path d="M65 0.382568H0V25.6125H65V0.382568Z" fill="#001DFF"/>
</g>
<path d="M147.519 24.528V1.47192H155.568C162.035 1.47192 165.254 4.71888 165.254 10.1214V16.1514C165.254 21.5539 162.035 24.528 155.568 24.528H147.519ZM152.376 20.3261H155.568C158.87 20.3261 160.179 18.9618 160.179 15.5785V10.6944C160.179 7.33827 158.87 5.67387 155.568 5.67387H152.376V20.3261Z" fill="#001DFF"/>
<path d="M124.912 24.528L131.187 1.47192H138.745L145.048 24.528H139.591L138.445 19.9714H131.515L130.369 24.528H124.912ZM132.524 15.824H137.436L137.026 14.2142C136.153 10.6944 135.635 7.82941 135.116 5.21002H134.843C134.325 7.82941 133.807 10.6944 132.933 14.2142L132.524 15.824Z" fill="#001DFF"/>
<path d="M113.28 24.9647C106.923 24.9647 103.594 21.9906 103.594 16.3152V9.68486C103.594 4.0095 106.923 1.0354 113.28 1.0354C119.638 1.0354 122.966 4.0095 122.966 9.68486V16.3152C122.966 21.9906 119.638 24.9647 113.28 24.9647ZM108.669 16.1242C108.669 19.071 110.251 20.599 113.28 20.599C116.309 20.599 117.891 19.071 117.891 16.1242V9.87586C117.891 6.92904 116.309 5.40106 113.28 5.40106C110.251 5.40106 108.669 6.92904 108.669 9.87586V16.1242Z" fill="#001DFF"/>
<path d="M87.0063 24.528V1.47192H91.9722V20.3261H101.195V24.528H87.0063Z" fill="#001DFF"/>
<path d="M78 24.528V1.47192H82.8841V24.528H78Z" fill="#001DFF"/>
</svg>
